{"title":"Be Somebody 2016 Movies HDRip XviD AAC New Source +Sample ☻rDX☻","uid":14866477,"size":739419431,"categoryP":"video","categoryS":"movies","magnet":"?xt=urn:btih:9d70ef3020054d362690d47c7c8b22a5e7a8b4c1&amp;dn=Be+Somebody+2016+Movies+HDRip+XviD+AAC+New+Source+%2BSample+%E2%98%BBrDX%E2%98%BB&amp;tr=udp%3A%2F%2Ftracker.leechers-paradise.org%3A6969&amp;tr=udp%3A%2F%2Fzer0day.ch%3A1337&amp;tr=udp%3A%2F%2Fopen.demonii.com%3A1337&amp;tr=udp%3A%2F%2Ftracker.coppersurfer.tk%3A6969&amp;tr=udp%3A%2F%2Fexodus.desync.com%3A6969","seeders":0,"leechers":1,"uploader":"basicssom","files":2,"time":1465551081,"description":"----------------------------------------------------------------\r\nBe Somebody 2016 English Movies HDRip XviD AAC New Source with Sample ☻rDX☻\r\n\r\nSCREEN SHOTS &amp; POSTER:\r\n  \nhttp://mobileshosting.com/2016/6/transfer/index.htm  \nhttp://mobileshosting.com/2016/6/transfer/1.html  \nhttp://mobileshosting.com/2016/6/transfer/2.html  \nhttp://mobileshosting.com/2016/6/transfer/3.html  \nhttp://mobileshosting.com/2016/6/transfer/4.html  \nhttp://mobileshosting.com/2016/6/transfer/5.html  \nhttp://mobileshosting.com/2016/6/transfer/6.html  \nhttp://mobileshosting.com/2016/6/transfer/7.html  \nhttp://mobileshosting.com/2016/6/transfer/8.html  \nhttp://mobileshosting.com/2016/6/transfer/9.html  \nhttp://mobileshosting.com/2016/6/transfer/10.html\r\n\r\nFormat                                   : Matroska\r\nFormat version                           : Version 4 / Version 2\r\nFile size                                : 698 MiB\r\nDuration                                 : 1h 27mn\r\nOverall bit rate                         : 1 121 Kbps\r\nMovie name                               : Be Somebody 2016 English Movies HDRip XviD AAC New Source ☻rDX☻\r\n\r\nVideo\r\nID                                       : 1\r\nFormat                                   : AVC\r\nFormat/Info                              : Advanced Video Codec\r\nFormat profile                           :   \r\nFormat settings, CABAC                   : Yes\r\nFormat settings, ReFrames                : 5 frames\r\nCodec ID                                 : V_MPEG4/ISO/AVC\r\nDuration                                 : 1h 27mn\r\nBit rate                                 : 928 Kbps\r\nWidth                                    : 640 pixels\r\nHeight                                   : 264 pixels\r\nDisplay aspect ratio                     : 2.40:1\r\nFrame rate mode                          : Constant\r\nFrame rate                               : 23.976 fps\r\nColor space                              : YUV\r\nChroma subsampling                       : 4:2:0\r\nBit depth                                : 8 bits\r\nScan type                                : Progressive\r\nBits/(Pixel*Frame)                       : 0.229\r\nStream size                              : 565 MiB (81%)\r\nTitle                                    : ☻rDX☻\r\nWriting library                          : XviD\r\nForced                                   : No\r\nColor primaries                          : BT.709\r\nTransfer characteristics                 : BT.709\r\nMatrix coefficients                      : BT.709\r\n\r\nAudio\r\nID                                       : 2\r\nFormat                                   : AC-3\r\nFormat/Info                              : Audio Coding 3\r\nFormat profile                           : Dolby Digital\r\nMode extension                           : CM (complete main)\r\nFormat settings, Endianness              : Big\r\nCodec ID                                 : A_AC3\r\nDuration                                 : 1h 27mn\r\nBit rate mode                            : Constant\r\nBit rate                                 : 192 Kbps\r\nChannel(s)                               : 2 channels\r\nChannel positions                        : Front: L R\r\nSampling rate                            : 48.0 KHz\r\nBit depth                                : 16 bits\r\nCompression mode                         : Lossy\r\nStream size                              : 120 MiB (17%)\r\nTitle                                    : ☻rDX☻\r\nLanguage                                 : English\r\nDefault                                  : Yes\r\nForced                                   : No\r\n\r\nIMDB \nhttp://www.imdb.com/title/tt5512872/","torrent":{"xt":"urn:btih:9d70ef3020054d362690d47c7c8b22a5e7a8b4c1","amp;dn":"Be+Somebody+2016+Movies+HDRip+XviD+AAC+New+Source+%2BSample+%E2%98%BBrDX%E2%98%BB","amp;tr":["udp%3A%2F%2Ftracker.leechers-paradise.org%3A6969","udp%3A%2F%2Fzer0day.ch%3A1337","udp%3A%2F%2Fopen.demonii.com%3A1337","udp%3A%2F%2Ftracker.coppersurfer.tk%3A6969","udp%3A%2F%2Fexodus.desync.com%3A6969"],"infoHash":"9d70ef3020054d362690d47c7c8b22a5e7a8b4c1","infoHashBuffer":{"type":"Buffer","data":[157,112,239,48,32,5,77,54,38,144,212,124,124,139,34,165,231,168,180,193]},"announce":[],"urlList":[]}}